<?xml version="1.0" encoding="UTF-8" standalone="no"?>
<!DOCTYPE svg PUBLIC "-//W3C//DTD SVG 1.1//EN"
 "http://www.w3.org/Graphics/SVG/1.1/DTD/svg11.dtd">
<!-- Generated by graphviz version 2.38.0 (20140413.2041)
 -->
<!-- Title: controllers_diagram Pages: 1 -->
<svg width="536pt" height="469pt"
 viewBox="0.00 0.00 535.51 469.00" xmlns="http://www.w3.org/2000/svg" xmlns:xlink="http://www.w3.org/1999/xlink">
<g id="graph0" class="graph" transform="scale(1 1) rotate(0) translate(195.821 273.5)">
<title>controllers_diagram</title>
<polygon fill="none" stroke="none" points="-195.821,195.5 -195.821,-273.5 339.688,-273.5 339.688,195.5 -195.821,195.5"/>
<!-- _diagram_info -->
<g id="node1" class="node"><title>_diagram_info</title>
<text text-anchor="start" x="136.312" y="68.9" font-family="Times,serif" font-size="13.00">Controllers diagram</text>
<text text-anchor="start" x="136.312" y="81.9" font-family="Times,serif" font-size="13.00">Date: Jul 15 2016 &#45; 10:03</text>
<text text-anchor="start" x="136.312" y="94.9" font-family="Times,serif" font-size="13.00">Migration version: 20160714093027</text>
<text text-anchor="start" x="136.312" y="107.9" font-family="Times,serif" font-size="13.00">Generated by RailRoady 1.5.1</text>
<text text-anchor="start" x="136.312" y="120.9" font-family="Times,serif" font-size="13.00">http://railroady.prestonlee.com</text>
</g>
<!-- ApplicationController -->
<g id="node2" class="node"><title>ApplicationController</title>
<path fill="none" stroke="black" d="M-179.821,191C-179.821,191 -64.1792,191 -64.1792,191 -58.1792,191 -52.1792,185 -52.1792,179 -52.1792,179 -52.1792,111 -52.1792,111 -52.1792,105 -58.1792,99 -64.1792,99 -64.1792,99 -179.821,99 -179.821,99 -185.821,99 -191.821,105 -191.821,111 -191.821,111 -191.821,179 -191.821,179 -191.821,185 -185.821,191 -179.821,191"/>
<text text-anchor="middle" x="-122" y="114.2" font-family="Times,serif" font-size="14.00">ApplicationController</text>
<polyline fill="none" stroke="black" points="-191.821,121 -52.1792,121 "/>
<polyline fill="none" stroke="black" points="-191.821,145 -52.1792,145 "/>
<polyline fill="none" stroke="black" points="-191.821,169 -52.1792,169 "/>
<text text-anchor="start" x="-183.821" y="184.2" font-family="Times,serif" font-size="14.00">_layout</text>
</g>
<!-- RestaurantsController -->
<g id="node3" class="node"><title>RestaurantsController</title>
<path fill="none" stroke="black" d="M91.5688,-81C91.5688,-81 206.431,-81 206.431,-81 212.431,-81 218.431,-87 218.431,-93 218.431,-93 218.431,-257 218.431,-257 218.431,-263 212.431,-269 206.431,-269 206.431,-269 91.5688,-269 91.5688,-269 85.5688,-269 79.5688,-263 79.5688,-257 79.5688,-257 79.5688,-93 79.5688,-93 79.5688,-87 85.5688,-81 91.5688,-81"/>
<text text-anchor="middle" x="149" y="-253.8" font-family="Times,serif" font-size="14.00">RestaurantsController</text>
<polyline fill="none" stroke="black" points="79.5688,-247 218.431,-247 "/>
<text text-anchor="start" x="87.5688" y="-231.8" font-family="Times,serif" font-size="14.00">update</text>
<text text-anchor="start" x="87.5688" y="-217.8" font-family="Times,serif" font-size="14.00">destroy</text>
<text text-anchor="start" x="87.5688" y="-203.8" font-family="Times,serif" font-size="14.00">edit</text>
<text text-anchor="start" x="87.5688" y="-189.8" font-family="Times,serif" font-size="14.00">index</text>
<text text-anchor="start" x="87.5688" y="-175.8" font-family="Times,serif" font-size="14.00">new</text>
<text text-anchor="start" x="87.5688" y="-161.8" font-family="Times,serif" font-size="14.00">restaurant_params</text>
<text text-anchor="start" x="87.5688" y="-147.8" font-family="Times,serif" font-size="14.00">show</text>
<text text-anchor="start" x="87.5688" y="-133.8" font-family="Times,serif" font-size="14.00">create</text>
<polyline fill="none" stroke="black" points="79.5688,-127 218.431,-127 "/>
<polyline fill="none" stroke="black" points="79.5688,-103 218.431,-103 "/>
<text text-anchor="start" x="87.5688" y="-87.8" font-family="Times,serif" font-size="14.00">_layout</text>
</g>
<!-- ReviewsController -->
<g id="node4" class="node"><title>ReviewsController</title>
<path fill="none" stroke="black" d="M-67.8794,-81C-67.8794,-81 29.8794,-81 29.8794,-81 35.8794,-81 41.8794,-87 41.8794,-93 41.8794,-93 41.8794,-187 41.8794,-187 41.8794,-193 35.8794,-199 29.8794,-199 29.8794,-199 -67.8794,-199 -67.8794,-199 -73.8794,-199 -79.8794,-193 -79.8794,-187 -79.8794,-187 -79.8794,-93 -79.8794,-93 -79.8794,-87 -73.8794,-81 -67.8794,-81"/>
<text text-anchor="middle" x="-19" y="-183.8" font-family="Times,serif" font-size="14.00">ReviewsController</text>
<polyline fill="none" stroke="black" points="-79.8794,-177 41.8794,-177 "/>
<text text-anchor="start" x="-71.8794" y="-161.8" font-family="Times,serif" font-size="14.00">create</text>
<text text-anchor="start" x="-71.8794" y="-147.8" font-family="Times,serif" font-size="14.00">new</text>
<polyline fill="none" stroke="black" points="-79.8794,-141 41.8794,-141 "/>
<polyline fill="none" stroke="black" points="-79.8794,-117 41.8794,-117 "/>
<text text-anchor="start" x="-71.8794" y="-101.8" font-family="Times,serif" font-size="14.00">_layout</text>
<text text-anchor="start" x="-71.8794" y="-87.8" font-family="Times,serif" font-size="14.00">review_params</text>
</g>
<!-- Users::OmniauthCallbacksController -->
<g id="node5" class="node"><title>Users::OmniauthCallbacksController</title>
<path fill="none" stroke="black" d="M-116.204,63C-116.204,63 84.2036,63 84.2036,63 90.2036,63 96.2036,57 96.2036,51 96.2036,51 96.2036,-29 96.2036,-29 96.2036,-35 90.2036,-41 84.2036,-41 84.2036,-41 -116.204,-41 -116.204,-41 -122.204,-41 -128.204,-35 -128.204,-29 -128.204,-29 -128.204,51 -128.204,51 -128.204,57 -122.204,63 -116.204,63"/>
<text text-anchor="middle" x="-16" y="-25.8" font-family="Times,serif" font-size="14.00">Users::OmniauthCallbacksController</text>
<polyline fill="none" stroke="black" points="-128.204,-19 96.2036,-19 "/>
<text text-anchor="start" x="-120.204" y="-3.8" font-family="Times,serif" font-size="14.00">facebook</text>
<text text-anchor="start" x="-120.204" y="10.2" font-family="Times,serif" font-size="14.00">failure</text>
<polyline fill="none" stroke="black" points="-128.204,17 96.2036,17 "/>
<polyline fill="none" stroke="black" points="-128.204,41 96.2036,41 "/>
<text text-anchor="start" x="-120.204" y="56.2" font-family="Times,serif" font-size="14.00">_layout</text>
</g>
</g>
</svg>
