<?xml version="1.0" encoding="UTF-8" standalone="no"?>
<!DOCTYPE svg PUBLIC "-//W3C//DTD SVG 1.1//EN"
 "http://www.w3.org/Graphics/SVG/1.1/DTD/svg11.dtd">
<!-- Generated by graphviz version 2.38.0 (20140413.2041)
 -->
<!-- Title: models_diagram Pages: 1 -->
<svg width="780pt" height="594pt"
 viewBox="0.00 0.00 779.55 594.00" xmlns="http://www.w3.org/2000/svg" xmlns:xlink="http://www.w3.org/1999/xlink">
<g id="graph0" class="graph" transform="scale(1 1) rotate(0) translate(4 590)">
<title>models_diagram</title>
<polygon fill="none" stroke="none" points="-4,4 -4,-590 775.55,-590 775.55,4 -4,4"/>
<!-- _diagram_info -->
<g id="node1" class="node"><title>_diagram_info</title>
<text text-anchor="start" x="8" y="-487.6" font-family="Times,serif" font-size="13.00">Models diagram</text>
<text text-anchor="start" x="8" y="-474.6" font-family="Times,serif" font-size="13.00">Date: Jul 15 2016 &#45; 10:03</text>
<text text-anchor="start" x="8" y="-461.6" font-family="Times,serif" font-size="13.00">Migration version: 20160714093027</text>
<text text-anchor="start" x="8" y="-448.6" font-family="Times,serif" font-size="13.00">Generated by RailRoady 1.5.1</text>
<text text-anchor="start" x="8" y="-435.6" font-family="Times,serif" font-size="13.00">http://railroady.prestonlee.com</text>
</g>
<!-- ApplicationRecord -->
<g id="node2" class="node"><title>ApplicationRecord</title>
<ellipse fill="none" stroke="black" cx="302.688" cy="-465.5" rx="77.2916" ry="18"/>
<text text-anchor="middle" x="302.688" y="-461.3" font-family="Times,serif" font-size="14.00">ApplicationRecord</text>
</g>
<!-- Restaurant -->
<g id="node3" class="node"><title>Restaurant</title>
<path fill="none" stroke="black" d="M427.825,-166.5C427.825,-166.5 651.55,-166.5 651.55,-166.5 657.55,-166.5 663.55,-172.5 663.55,-178.5 663.55,-178.5 663.55,-282.5 663.55,-282.5 663.55,-288.5 657.55,-294.5 651.55,-294.5 651.55,-294.5 427.825,-294.5 427.825,-294.5 421.825,-294.5 415.825,-288.5 415.825,-282.5 415.825,-282.5 415.825,-178.5 415.825,-178.5 415.825,-172.5 421.825,-166.5 427.825,-166.5"/>
<text text-anchor="middle" x="539.688" y="-279.3" font-family="Times,serif" font-size="14.00">Restaurant</text>
<polyline fill="none" stroke="black" points="415.825,-272.5 663.55,-272.5 "/>
<text text-anchor="start" x="423.825" y="-257.3" font-family="Times,serif" font-size="14.00">created_at :timestamp without time zone</text>
<text text-anchor="start" x="423.825" y="-243.3" font-family="Times,serif" font-size="14.00">name :character varying</text>
<text text-anchor="start" x="423.825" y="-229.3" font-family="Times,serif" font-size="14.00">rating :integer</text>
<text text-anchor="start" x="423.825" y="-215.3" font-family="Times,serif" font-size="14.00">id :integer</text>
<text text-anchor="start" x="423.825" y="-201.3" font-family="Times,serif" font-size="14.00">updated_at :timestamp without time zone</text>
<text text-anchor="start" x="423.825" y="-187.3" font-family="Times,serif" font-size="14.00">description :text</text>
<text text-anchor="start" x="423.825" y="-173.3" font-family="Times,serif" font-size="14.00">user_id :integer</text>
</g>
<!-- Review -->
<g id="node4" class="node"><title>Review</title>
<path fill="none" stroke="black" d="M535.825,-0.5C535.825,-0.5 759.55,-0.5 759.55,-0.5 765.55,-0.5 771.55,-6.5 771.55,-12.5 771.55,-12.5 771.55,-116.5 771.55,-116.5 771.55,-122.5 765.55,-128.5 759.55,-128.5 759.55,-128.5 535.825,-128.5 535.825,-128.5 529.825,-128.5 523.825,-122.5 523.825,-116.5 523.825,-116.5 523.825,-12.5 523.825,-12.5 523.825,-6.5 529.825,-0.5 535.825,-0.5"/>
<text text-anchor="middle" x="647.688" y="-113.3" font-family="Times,serif" font-size="14.00">Review</text>
<polyline fill="none" stroke="black" points="523.825,-106.5 771.55,-106.5 "/>
<text text-anchor="start" x="531.825" y="-91.3" font-family="Times,serif" font-size="14.00">created_at :timestamp without time zone</text>
<text text-anchor="start" x="531.825" y="-77.3" font-family="Times,serif" font-size="14.00">thoughts :text</text>
<text text-anchor="start" x="531.825" y="-63.3" font-family="Times,serif" font-size="14.00">rating :integer</text>
<text text-anchor="start" x="531.825" y="-49.3" font-family="Times,serif" font-size="14.00">id :integer</text>
<text text-anchor="start" x="531.825" y="-35.3" font-family="Times,serif" font-size="14.00">updated_at :timestamp without time zone</text>
<text text-anchor="start" x="531.825" y="-21.3" font-family="Times,serif" font-size="14.00">restaurant_id :integer</text>
<text text-anchor="start" x="531.825" y="-7.3" font-family="Times,serif" font-size="14.00">user_id :integer</text>
</g>
<!-- Restaurant&#45;&gt;Review -->
<g id="edge1" class="edge"><title>Restaurant&#45;&gt;Review</title>
<path fill="none" stroke="#1e52ba" d="M586.02,-159.144C590.803,-151.881 595.667,-144.494 600.46,-137.217"/>
<ellipse fill="none" stroke="#1e52ba" cx="583.643" cy="-162.753" rx="4.00002" ry="4.00002"/>
<polygon fill="#1e52ba" stroke="#1e52ba" points="600.543,-137.09 609.801,-131.213 603.293,-132.914 606.043,-128.738 606.043,-128.738 606.043,-128.738 603.293,-132.914 602.285,-126.263 600.543,-137.09 600.543,-137.09"/>
</g>
<!-- User -->
<g id="node5" class="node"><title>User</title>
<path fill="none" stroke="black" d="M410.053,-345.5C410.053,-345.5 705.323,-345.5 705.323,-345.5 711.323,-345.5 717.323,-351.5 717.323,-357.5 717.323,-357.5 717.323,-573.5 717.323,-573.5 717.323,-579.5 711.323,-585.5 705.323,-585.5 705.323,-585.5 410.053,-585.5 410.053,-585.5 404.053,-585.5 398.053,-579.5 398.053,-573.5 398.053,-573.5 398.053,-357.5 398.053,-357.5 398.053,-351.5 404.053,-345.5 410.053,-345.5"/>
<text text-anchor="middle" x="557.688" y="-570.3" font-family="Times,serif" font-size="14.00">User</text>
<polyline fill="none" stroke="black" points="398.053,-563.5 717.323,-563.5 "/>
<text text-anchor="start" x="406.053" y="-548.3" font-family="Times,serif" font-size="14.00">uid :character varying</text>
<text text-anchor="start" x="406.053" y="-534.3" font-family="Times,serif" font-size="14.00">email :character varying</text>
<text text-anchor="start" x="406.053" y="-520.3" font-family="Times,serif" font-size="14.00">encrypted_password :character varying</text>
<text text-anchor="start" x="406.053" y="-506.3" font-family="Times,serif" font-size="14.00">reset_password_token :character varying</text>
<text text-anchor="start" x="406.053" y="-492.3" font-family="Times,serif" font-size="14.00">reset_password_sent_at :timestamp without time zone</text>
<text text-anchor="start" x="406.053" y="-478.3" font-family="Times,serif" font-size="14.00">remember_created_at :timestamp without time zone</text>
<text text-anchor="start" x="406.053" y="-464.3" font-family="Times,serif" font-size="14.00">sign_in_count :integer</text>
<text text-anchor="start" x="406.053" y="-450.3" font-family="Times,serif" font-size="14.00">current_sign_in_at :timestamp without time zone</text>
<text text-anchor="start" x="406.053" y="-436.3" font-family="Times,serif" font-size="14.00">last_sign_in_at :timestamp without time zone</text>
<text text-anchor="start" x="406.053" y="-422.3" font-family="Times,serif" font-size="14.00">current_sign_in_ip :inet</text>
<text text-anchor="start" x="406.053" y="-408.3" font-family="Times,serif" font-size="14.00">last_sign_in_ip :inet</text>
<text text-anchor="start" x="406.053" y="-394.3" font-family="Times,serif" font-size="14.00">created_at :timestamp without time zone</text>
<text text-anchor="start" x="406.053" y="-380.3" font-family="Times,serif" font-size="14.00">updated_at :timestamp without time zone</text>
<text text-anchor="start" x="406.053" y="-366.3" font-family="Times,serif" font-size="14.00">provider :character varying</text>
<text text-anchor="start" x="406.053" y="-352.3" font-family="Times,serif" font-size="14.00">id :integer</text>
</g>
<!-- User&#45;&gt;Restaurant -->
<g id="edge2" class="edge"><title>User&#45;&gt;Restaurant</title>
<path fill="none" stroke="#b09bbb" d="M539.476,-337.258C539.184,-333.805 538.92,-330.381 538.688,-327 538.261,-320.792 538.65,-319.222 538.688,-313 538.704,-310.307 538.724,-307.564 538.746,-304.793"/>
<ellipse fill="none" stroke="#b09bbb" cx="539.847" cy="-341.375" rx="4" ry="4"/>
<polygon fill="#b09bbb" stroke="#b09bbb" points="538.747,-304.679 543.336,-294.72 538.791,-299.68 538.836,-294.68 538.836,-294.68 538.836,-294.68 538.791,-299.68 534.336,-294.64 538.747,-304.679 538.747,-304.679"/>
</g>
<!-- User&#45;&gt;Restaurant -->
<g id="edge4" class="edge"><title>User&#45;&gt;Restaurant</title>
<path fill="none" stroke="#583fa1" d="M547.688,-335.057C546.886,-324.68 546.095,-314.442 545.341,-304.678"/>
<polygon fill="#583fa1" stroke="#583fa1" points="547.706,-335.299 543.99,-345.616 548.092,-340.285 548.477,-345.27 548.477,-345.27 548.477,-345.27 548.092,-340.285 552.963,-344.923 547.706,-335.299 547.706,-335.299"/>
<polygon fill="#583fa1" stroke="#583fa1" points="545.34,-304.658 549.056,-294.341 544.954,-299.673 544.569,-294.688 544.569,-294.688 544.569,-294.688 544.954,-299.673 540.083,-295.034 545.34,-304.658 545.34,-304.658"/>
<text text-anchor="middle" x="605.16" y="-315.8" font-family="Times,serif" font-size="14.00">reviewed_restaurants</text>
</g>
<!-- User&#45;&gt;Review -->
<g id="edge3" class="edge"><title>User&#45;&gt;Review</title>
<path fill="none" stroke="#7f6307" d="M663.474,-338.29C665.335,-334.551 667.079,-330.785 668.688,-327 694.131,-267.115 684.638,-192.633 671.277,-138.494"/>
<ellipse fill="none" stroke="#7f6307" cx="661.599" cy="-341.894" rx="4.00002" ry="4.00002"/>
<polygon fill="#7f6307" stroke="#7f6307" points="671.231,-138.316 673.103,-127.511 669.988,-133.473 668.745,-128.63 668.745,-128.63 668.745,-128.63 669.988,-133.473 664.386,-129.749 671.231,-138.316 671.231,-138.316"/>
</g>
</g>
</svg>
