<?xml version="1.0" encoding="UTF-8" standalone="no"?>
<!DOCTYPE svg PUBLIC "-//W3C//DTD SVG 1.1//EN"
 "http://www.w3.org/Graphics/SVG/1.1/DTD/svg11.dtd">
<!-- Generated by graphviz version 2.38.0 (20140413.2041)
 -->
<!-- Title: models_diagram Pages: 1 -->
<svg width="564pt" height="240pt"
 viewBox="0.00 0.00 563.81 240.00" xmlns="http://www.w3.org/2000/svg" xmlns:xlink="http://www.w3.org/1999/xlink">
<g id="graph0" class="graph" transform="scale(1 1) rotate(0) translate(4 236)">
<title>models_diagram</title>
<polygon fill="none" stroke="none" points="-4,4 -4,-236 559.809,-236 559.809,4 -4,4"/>
<!-- _diagram_info -->
<g id="node1" class="node"><title>_diagram_info</title>
<text text-anchor="start" x="8" y="-217.6" font-family="Times,serif" font-size="13.00">Models diagram</text>
<text text-anchor="start" x="8" y="-204.6" font-family="Times,serif" font-size="13.00">Date: Jul 15 2016 &#45; 10:03</text>
<text text-anchor="start" x="8" y="-191.6" font-family="Times,serif" font-size="13.00">Migration version: 20160714093027</text>
<text text-anchor="start" x="8" y="-178.6" font-family="Times,serif" font-size="13.00">Generated by RailRoady 1.5.1</text>
<text text-anchor="start" x="8" y="-165.6" font-family="Times,serif" font-size="13.00">http://railroady.prestonlee.com</text>
</g>
<!-- ApplicationRecord -->
<g id="node2" class="node"><title>ApplicationRecord</title>
<ellipse fill="none" stroke="black" cx="302.688" cy="-195.5" rx="77.2916" ry="18"/>
<text text-anchor="middle" x="302.688" y="-191.3" font-family="Times,serif" font-size="14.00">ApplicationRecord</text>
</g>
<!-- Restaurant -->
<g id="node3" class="node"><title>Restaurant</title>
<ellipse fill="none" stroke="black" cx="424.688" cy="-91" rx="47.8496" ry="18"/>
<text text-anchor="middle" x="424.688" y="-86.8" font-family="Times,serif" font-size="14.00">Restaurant</text>
</g>
<!-- Review -->
<g id="node4" class="node"><title>Review</title>
<ellipse fill="none" stroke="black" cx="518.688" cy="-18" rx="37.2421" ry="18"/>
<text text-anchor="middle" x="518.688" y="-13.8" font-family="Times,serif" font-size="14.00">Review</text>
</g>
<!-- Restaurant&#45;&gt;Review -->
<g id="edge1" class="edge"><title>Restaurant&#45;&gt;Review</title>
<path fill="none" stroke="#a74f62" d="M451.794,-69.526C464.135,-60.2047 478.72,-49.1884 491.117,-39.8251"/>
<ellipse fill="none" stroke="#a74f62" cx="448.276" cy="-72.1832" rx="4.00002" ry="4.00002"/>
<polygon fill="#a74f62" stroke="#a74f62" points="491.315,-39.6752 502.007,-37.2388 495.305,-36.6616 499.295,-33.648 499.295,-33.648 499.295,-33.648 495.305,-36.6616 496.582,-30.0572 491.315,-39.6752 491.315,-39.6752"/>
</g>
<!-- User -->
<g id="node5" class="node"><title>User</title>
<ellipse fill="none" stroke="black" cx="424.688" cy="-195.5" rx="27" ry="18"/>
<text text-anchor="middle" x="424.688" y="-191.3" font-family="Times,serif" font-size="14.00">User</text>
</g>
<!-- User&#45;&gt;Restaurant -->
<g id="edge2" class="edge"><title>User&#45;&gt;Restaurant</title>
<path fill="none" stroke="#b93f9a" d="M411.808,-170.907C406.329,-157.983 401.966,-141.657 405.688,-127 406.463,-123.949 407.563,-120.876 408.848,-117.885"/>
<ellipse fill="none" stroke="#b93f9a" cx="413.624" cy="-174.838" rx="4.00002" ry="4.00002"/>
<polygon fill="#b93f9a" stroke="#b93f9a" points="408.947,-117.688 417.439,-110.751 411.18,-113.215 413.413,-108.741 413.413,-108.741 413.413,-108.741 411.18,-113.215 409.387,-106.731 408.947,-117.688 408.947,-117.688"/>
</g>
<!-- User&#45;&gt;Restaurant -->
<g id="edge4" class="edge"><title>User&#45;&gt;Restaurant</title>
<path fill="none" stroke="#8b8cfc" d="M424.688,-166.974C424.688,-152.155 424.688,-133.94 424.688,-119.175"/>
<polygon fill="#8b8cfc" stroke="#8b8cfc" points="424.688,-167.112 420.188,-177.112 424.688,-172.112 424.688,-177.112 424.688,-177.112 424.688,-177.112 424.688,-172.112 429.188,-177.112 424.688,-167.112 424.688,-167.112"/>
<polygon fill="#8b8cfc" stroke="#8b8cfc" points="424.688,-119.131 429.188,-109.131 424.688,-114.131 424.688,-109.131 424.688,-109.131 424.688,-109.131 424.688,-114.131 420.188,-109.131 424.688,-119.131 424.688,-119.131"/>
<text text-anchor="middle" x="484.16" y="-129.8" font-family="Times,serif" font-size="14.00">reviewed_restaurants</text>
</g>
<!-- User&#45;&gt;Review -->
<g id="edge3" class="edge"><title>User&#45;&gt;Review</title>
<path fill="none" stroke="#626a7c" d="M459.178,-189.474C487.512,-183.329 525.925,-169.908 544.688,-141 563.799,-111.555 548.285,-70.4863 534.331,-44.3185"/>
<ellipse fill="none" stroke="#626a7c" cx="455.032" cy="-190.304" rx="4.00001" ry="4.00001"/>
<polygon fill="#626a7c" stroke="#626a7c" points="534.221,-44.1222 533.253,-33.1992 531.775,-39.7617 529.328,-35.4011 529.328,-35.4011 529.328,-35.4011 531.775,-39.7617 525.404,-37.6029 534.221,-44.1222 534.221,-44.1222"/>
</g>
</g>
</svg>
